<?xml version="1.0" standalone="no"?>
<!DOCTYPE svg PUBLIC "-//W3C//DTD SVG 20010904//EN"
 "http://www.w3.org/TR/2001/REC-SVG-20010904/DTD/svg10.dtd">
<svg version="1.0" xmlns="http://www.w3.org/2000/svg"
 width="700.000000pt" height="700.000000pt" viewBox="0 0 700.000000 700.000000"
 preserveAspectRatio="xMidYMid meet">
<metadata>
Created by potrace 1.14, written by Peter Selinger 2001-2017
</metadata>
<g transform="translate(0.000000,700.000000) scale(0.100000,-0.100000)"
fill="#000000" stroke="none">
<path d="M3439 6548 c-8 -5 -194 -76 -414 -158 -220 -83 -409 -155 -420 -159
-11 -5 -94 -37 -185 -71 -91 -34 -179 -68 -197 -76 -17 -8 -36 -14 -42 -14 -6
0 -25 -6 -43 -14 -80 -35 -109 -46 -213 -84 -60 -23 -157 -59 -215 -82 -58
-22 -123 -47 -145 -55 -22 -7 -62 -22 -90 -32 -27 -11 -160 -61 -295 -112
-135 -51 -258 -99 -275 -106 -16 -7 -165 -63 -330 -124 -236 -89 -306 -119
-327 -142 -30 -32 -30 -32 -28 -207 2 -182 8 -186 248 -188 95 -1 176 -5 180
-9 4 -4 7 -48 8 -98 1 -111 19 -157 77 -195 l41 -27 2713 -1 c2100 0 2722 3
2749 12 80 27 105 78 108 216 l2 101 176 -1 c253 0 257 4 259 216 0 132 -6
166 -37 193 -11 9 -158 69 -329 134 -170 64 -337 127 -370 140 -33 13 -161 62
-285 108 -124 47 -351 133 -505 192 -477 181 -967 367 -1030 390 -86 32 -483
183 -525 199 -170 68 -219 78 -261 54z"/>
<path d="M1320 4370 c-4 -3 -8 -574 -8 -1270 0 -696 -1 -1284 -1 -1307 l-1
-42 -273 -3 -274 -3 -36 -28 c-62 -47 -69 -71 -69 -231 0 -77 0 -148 1 -157 1
-15 221 -17 2843 -15 l2842 1 0 145 c1 153 -7 196 -45 236 -47 50 -61 53 -341
54 -144 0 -264 2 -266 5 -2 2 -4 592 -5 1312 l-2 1308 -425 0 c-234 1 -430 -1
-437 -3 -8 -2 -11 -318 -12 -1260 0 -691 0 -1281 0 -1309 l-1 -53 -435 0
c-341 0 -435 3 -436 13 0 6 -1 596 -1 1310 -1 1186 -2 1297 -17 1298 -42 3
-837 5 -847 2 -8 -3 -11 -371 -12 -1286 0 -705 -1 -1294 -1 -1309 l-1 -28
-437 0 -438 0 1 1310 c1 721 -1 1311 -5 1311 -21 4 -854 3 -861 -1z"/>
<path d="M478 1083 c-86 -17 -146 -58 -200 -133 -47 -67 -56 -108 -57 -273 -2
-170 4 -194 52 -222 30 -18 136 -19 3227 -19 3113 0 3196 1 3227 19 18 10 37
32 43 49 18 51 14 304 -6 362 -35 105 -111 179 -219 215 -56 18 -5977 20
-6067 2z"/>
</g>
</svg>
